<svg width="1033" height="254" viewBox="0 0 1033 254" fill="none" xmlns="http://www.w3.org/2000/svg">
<path d="M115.48 0.143413C107.629 0.872526 97.3646 2.72336 92.4852 4.29376C91.5878 4.63026 89.1762 5.41547 87.1571 6.03241C67.5272 12.314 50.1966 23.1386 35.5583 38.2817C28.772 45.2924 25.0703 49.8353 19.9665 57.519C12.3388 69.0166 5.21597 86.347 2.24342 100.48C0.280428 109.903 0 113.1 0 126.561C0 140.021 0.280428 143.218 2.24342 152.64C5.21597 166.83 12.2827 183.936 20.0787 195.714C40.1573 226.169 70.4436 245.798 107.068 252.024C114.975 253.37 135.671 253.37 143.523 251.968C152.049 250.51 156.254 249.5 162.2 247.594C182.334 241.2 198.936 231.272 213.069 217.139C220.472 209.791 221.37 207.941 221.65 199.696C221.875 193.583 221.819 193.302 220.08 189.657C216.827 182.871 210.77 178.327 203.03 177.038C199.945 176.477 198.656 176.533 195.178 177.261C190.075 178.44 186.99 180.346 180.708 186.291C169.435 197.004 155.302 204.183 139.317 207.324C131.129 208.894 118.116 208.894 109.928 207.324C92.8217 204.014 79.3612 196.836 66.9663 184.385C53.3936 170.812 45.5976 155.052 43.3542 136.992C42.6251 131.328 43.0177 114.615 43.9151 111.418C44.2515 110.352 44.6442 108.669 44.8125 107.66C45.4293 103.789 48.7384 95.1523 51.8793 88.9831C63.2085 66.717 84.8576 50.6766 109.928 45.7971C118.116 44.2267 131.129 44.2267 139.317 45.7971C154.572 48.7697 168.257 55.556 179.866 65.8758C182.222 68.0631 185.643 70.5309 187.439 71.3722C190.411 72.8865 191.083 72.9987 197.085 72.9987C203.366 72.9987 203.591 72.9425 207.18 71.0357C211.891 68.5118 214.752 65.5953 216.771 61.3329C219.239 56.0047 219.856 52.5835 219.071 47.8723C217.78 40.3569 214.471 36.0943 203.03 26.9524C186.373 13.6601 165.509 4.57418 143.915 1.20904C138.7 0.367756 120.135 -0.305272 115.48 0.143413Z" fill="#5F0DA6"/>
<path d="M215.986 100.817C208.919 102.5 201.74 108.333 198.319 115.232C196.244 119.494 196.244 119.55 196.244 126.561C196.244 133.571 196.244 133.627 198.319 137.89C201.796 144.9 208.919 150.622 216.21 152.304C226.529 154.715 238.084 150.229 243.861 141.48C247.169 136.487 248.291 132.73 248.291 126.561C248.291 120.391 247.169 116.633 243.861 111.642C238.084 102.893 226.361 98.3493 215.986 100.817Z" fill="#5F0DA6"/>
<path d="M947.874 211.68C932.46 211.68 918.305 208.063 905.409 200.828C892.512 193.593 882.289 183.606 874.74 170.867C867.19 157.97 863.416 143.422 863.416 127.222C863.416 111.18 867.19 96.7889 874.74 84.0494C882.289 71.1526 892.512 61.0869 905.409 53.8521C918.305 46.6174 932.46 43 947.874 43C963.444 43 977.599 46.6174 990.338 53.8521C1003.24 61.0869 1013.38 71.1526 1020.77 84.0494C1028.32 96.7889 1032.1 111.18 1032.1 127.222C1032.1 143.422 1028.32 157.97 1020.77 170.867C1013.38 183.606 1003.24 193.593 990.338 200.828C977.442 208.063 963.287 211.68 947.874 211.68ZM947.874 182.19C957.782 182.19 966.511 179.989 974.06 175.585C981.61 171.024 987.507 164.575 991.754 156.24C996 147.904 998.124 138.231 998.124 127.222C998.124 116.213 996 106.619 991.754 98.4403C987.507 90.1046 981.61 83.7348 974.06 79.3311C966.511 74.9273 957.782 72.7254 947.874 72.7254C937.965 72.7254 929.158 74.9273 921.451 79.3311C913.902 83.7348 908.004 90.1046 903.757 98.4403C899.511 106.619 897.387 116.213 897.387 127.222C897.387 138.231 899.511 147.904 903.757 156.24C908.004 164.575 913.902 171.024 921.451 175.585C929.158 179.989 937.965 182.19 947.874 182.19Z" fill="#5F0DA6"/>
<path d="M759.896 45.3593C777.197 45.3593 792.374 48.7407 805.428 55.5036C818.639 62.2666 828.784 71.9391 835.861 84.5213C843.096 96.9462 846.713 111.416 846.713 127.93C846.713 144.444 843.096 158.914 835.861 171.338C828.784 183.606 818.639 193.121 805.428 199.884C792.374 206.647 777.197 210.029 759.896 210.029H702.333V45.3593H759.896ZM758.717 181.955C776.017 181.955 789.386 177.236 798.823 167.8C808.259 158.363 812.977 145.073 812.977 127.93C812.977 110.787 808.259 97.4181 798.823 87.8241C789.386 78.0729 776.017 73.1973 758.717 73.1973H735.361V181.955H758.717Z" fill="#5F0DA6"/>
<path d="M537.324 211.68C521.911 211.68 507.756 208.063 494.859 200.828C481.963 193.593 471.74 183.606 464.19 170.867C456.641 157.97 452.866 143.422 452.866 127.222C452.866 111.18 456.641 96.7889 464.19 84.0494C471.74 71.1526 481.963 61.0869 494.859 53.8521C507.756 46.6174 521.911 43 537.324 43C552.895 43 567.05 46.6174 579.789 53.8521C592.686 61.0869 602.83 71.1526 610.222 84.0494C617.772 96.7889 621.546 111.18 621.546 127.222C621.546 143.422 617.772 157.97 610.222 170.867C602.83 183.606 592.686 193.593 579.789 200.828C566.892 208.063 552.738 211.68 537.324 211.68ZM537.324 182.19C547.233 182.19 555.962 179.989 563.511 175.585C571.06 171.024 576.958 164.575 581.205 156.24C585.451 147.904 587.574 138.231 587.574 127.222C587.574 116.213 585.451 106.619 581.205 98.4403C576.958 90.1046 571.06 83.7348 563.511 79.3311C555.962 74.9273 547.233 72.7254 537.324 72.7254C527.416 72.7254 518.608 74.9273 510.902 79.3311C503.352 83.7348 497.455 90.1046 493.208 98.4403C488.962 106.619 486.838 116.213 486.838 127.222C486.838 138.231 488.962 147.904 493.208 156.24C497.455 164.575 503.352 171.024 510.902 175.585C518.608 179.989 527.416 182.19 537.324 182.19Z" fill="#5F0DA6"/>
<path d="M436.789 45.3593V72.0178H392.909V210.029H359.88V72.0178H316V45.3593H436.789Z" fill="#5F0DA6"/>
</svg>
